<svg width="18" height="18" viewBox="0 0 18 18" fill="none" xmlns="http://www.w3.org/2000/svg">
<g clip-path="url(#clip0_441_690)">
<path d="M12.6377 0H5.3623C2.40551 0 0 2.40551 0 5.3623V12.6377C0 15.5945 2.40551 18 5.3623 18H12.6377C15.5945 18 18 15.5945 18 12.6377V5.3623C18 2.40551 15.5945 0 12.6377 0ZM16.1892 12.6377C16.1892 14.5991 14.5991 16.1892 12.6377 16.1892H5.3623C3.40088 16.1892 1.8108 14.5991 1.8108 12.6377V5.3623C1.8108 3.40084 3.40088 1.8108 5.3623 1.8108H12.6377C14.5991 1.8108 16.1892 3.40084 16.1892 5.3623V12.6377Z" fill="white"/>
<path d="M8.99992 4.34448C6.43291 4.34448 4.34448 6.43291 4.34448 8.99989C4.34448 11.5669 6.43291 13.6553 8.99992 13.6553C11.5669 13.6553 13.6554 11.5669 13.6554 8.99989C13.6554 6.43288 11.5669 4.34448 8.99992 4.34448ZM8.99992 11.8446C7.42886 11.8446 6.15528 10.571 6.15528 8.99992C6.15528 7.42886 7.42889 6.15528 8.99992 6.15528C10.571 6.15528 11.8446 7.42886 11.8446 8.99992C11.8446 10.571 10.571 11.8446 8.99992 11.8446Z" fill="white"/>
<path d="M13.6643 5.49517C14.2804 5.49517 14.7798 4.99574 14.7798 4.37967C14.7798 3.76359 14.2804 3.26416 13.6643 3.26416C13.0483 3.26416 12.5488 3.76359 12.5488 4.37967C12.5488 4.99574 13.0483 5.49517 13.6643 5.49517Z" fill="white"/>
</g>
<defs>
<clipPath id="clip0_441_690">
<rect width="18" height="18" fill="white"/>
</clipPath>
</defs>
</svg>
