<svg width="160" height="110" viewBox="0 0 160 110" fill="none" xmlns="http://www.w3.org/2000/svg">
<path d="M64.9659 48.7927C64.6719 47.7008 63.811 46.8399 62.7192 46.5459C60.7244 46 52.7454 46 52.7454 46C52.7454 46 44.7664 46 42.7717 46.5249C41.7008 46.8189 40.8189 47.7008 40.5249 48.7927C40 50.7874 40 54.9239 40 54.9239C40 54.9239 40 59.0814 40.5249 61.0551C40.8189 62.147 41.6798 63.0079 42.7717 63.3018C44.7874 63.8478 52.7454 63.8478 52.7454 63.8478C52.7454 63.8478 60.7244 63.8478 62.7192 63.3228C63.811 63.0289 64.6719 62.168 64.9659 61.0761C65.4908 59.0814 65.4908 54.9449 65.4908 54.9449C65.4908 54.9449 65.5118 50.7874 64.9659 48.7927V48.7927Z" fill="white"/>
<path d="M50.2046 51.1024V58.7454L56.8398 54.9239L50.2046 51.1024Z" fill="#303030"/>
<path d="M77.0182 62.252C76.5142 61.916 76.1573 61.3911 75.9473 60.6562C75.7373 59.9423 75.6323 58.9764 75.6323 57.8005V56.1837C75.6323 54.9869 75.7583 54.021 75.9893 53.2861C76.2412 52.5512 76.6192 52.0263 77.1231 51.6903C77.6481 51.3543 78.32 51.1864 79.1599 51.1864C79.9788 51.1864 80.6507 51.3543 81.1546 51.6903C81.6586 52.0263 82.0155 52.5722 82.2465 53.2861C82.4775 54 82.6035 54.9659 82.6035 56.1837V57.8005C82.6035 58.9974 82.4985 59.9423 82.2675 60.6772C82.0365 61.3911 81.6796 61.937 81.1756 62.273C80.6717 62.6089 79.9788 62.7769 79.1179 62.7769C78.236 62.7559 77.5221 62.5879 77.0182 62.252V62.252ZM79.8528 60.4882C79.9998 60.1313 80.0628 59.5223 80.0628 58.7034V55.2179C80.0628 54.42 79.9998 53.832 79.8528 53.4541C79.7058 53.0761 79.4748 52.9082 79.1179 52.9082C78.7819 52.9082 78.53 53.0971 78.404 53.4541C78.257 53.832 78.194 54.42 78.194 55.2179V58.7034C78.194 59.5223 78.257 60.1313 78.404 60.4882C78.53 60.8452 78.7819 61.0341 79.1389 61.0341C79.4748 61.0341 79.7058 60.8662 79.8528 60.4882Z" fill="white"/>
<path d="M115.779 57.8215V58.3885C115.779 59.1024 115.8 59.6483 115.842 60.0053C115.884 60.3622 115.968 60.6352 116.115 60.7822C116.241 60.9502 116.451 61.0341 116.745 61.0341C117.123 61.0341 117.375 60.8872 117.522 60.5932C117.669 60.2992 117.732 59.8163 117.753 59.1234L119.916 59.2494C119.937 59.3544 119.937 59.4803 119.937 59.6483C119.937 60.6772 119.664 61.4541 119.097 61.958C118.53 62.462 117.732 62.7139 116.703 62.7139C115.464 62.7139 114.604 62.315 114.1 61.5381C113.596 60.7612 113.344 59.5643 113.344 57.9265V55.9738C113.344 54.294 113.596 53.0761 114.121 52.2992C114.646 51.5223 115.527 51.1444 116.766 51.1444C117.627 51.1444 118.299 51.3124 118.761 51.6273C119.223 51.9423 119.538 52.4462 119.727 53.0971C119.916 53.7691 120 54.6929 120 55.8688V57.7795H115.779V57.8215ZM116.094 53.1181C115.968 53.2861 115.884 53.5381 115.842 53.895C115.8 54.252 115.779 54.7979 115.779 55.5328V56.3307H117.627V55.5328C117.627 54.8189 117.606 54.273 117.564 53.895C117.522 53.5171 117.417 53.2651 117.291 53.1181C117.165 52.9712 116.955 52.8872 116.703 52.8872C116.409 52.8662 116.22 52.9502 116.094 53.1181Z" fill="white"/>
<path d="M70.8869 57.6116L68.0312 47.2599H70.5299L71.5378 51.9423C71.7898 53.0971 71.9788 54.084 72.1047 54.9029H72.1677C72.2517 54.315 72.4407 53.3491 72.7347 51.9633L73.7845 47.2599H76.2832L73.3856 57.6116V62.5669H70.9079V57.6116H70.8869Z" fill="white"/>
<path d="M90.7294 51.3963V62.5879H88.7557L88.5457 61.2231H88.4827C87.9578 62.252 87.1389 62.7769 86.068 62.7769C85.3331 62.7769 84.7872 62.5249 84.4302 62.042C84.0733 61.5591 83.9053 60.8032 83.9053 59.7533V51.3963H86.425V59.6063C86.425 60.1102 86.4879 60.4672 86.5929 60.6772C86.6979 60.8871 86.8869 60.9921 87.1389 60.9921C87.3488 60.9921 87.5588 60.9291 87.7688 60.7822C87.9788 60.6562 88.1257 60.4882 88.2097 60.2782V51.3963H90.7294Z" fill="white"/>
<path d="M103.643 51.3963V62.5879H101.669L101.459 61.2231H101.396C100.871 62.252 100.052 62.7769 98.9816 62.7769C98.2467 62.7769 97.7007 62.5249 97.3438 62.042C96.9868 61.5591 96.8188 60.8032 96.8188 59.7533V51.3963H99.3385V59.6063C99.3385 60.1102 99.4015 60.4672 99.5065 60.6772C99.6115 60.8871 99.8005 60.9921 100.052 60.9921C100.262 60.9921 100.472 60.9291 100.682 60.7822C100.892 60.6562 101.039 60.4882 101.123 60.2782V51.3963H103.643Z" fill="white"/>
<path d="M97.5747 49.2966H95.076V62.5669H92.6193V49.2966H90.1206V47.2599H97.5747V49.2966Z" fill="white"/>
<path d="M111.979 53.1811C111.832 52.4672 111.58 51.9633 111.244 51.6483C110.908 51.3334 110.425 51.1654 109.837 51.1654C109.375 51.1654 108.934 51.2914 108.535 51.5643C108.136 51.8163 107.821 52.1732 107.611 52.5932H107.59V46.6929H105.155V62.567H107.234L107.485 61.5171H107.548C107.737 61.895 108.031 62.189 108.43 62.42C108.829 62.6299 109.249 62.7559 109.732 62.7559C110.593 62.7559 111.202 62.357 111.601 61.5801C112 60.8032 112.21 59.5643 112.21 57.9055V56.1418C112.189 54.8609 112.126 53.874 111.979 53.1811V53.1811ZM109.669 57.7376C109.669 58.5565 109.627 59.1864 109.564 59.6483C109.501 60.1103 109.375 60.4462 109.228 60.6352C109.06 60.8242 108.85 60.9292 108.598 60.9292C108.388 60.9292 108.199 60.8872 108.031 60.7822C107.863 60.6772 107.716 60.5302 107.611 60.3412V54C107.695 53.7061 107.842 53.4541 108.052 53.2441C108.262 53.0551 108.493 52.9502 108.724 52.9502C108.976 52.9502 109.186 53.0551 109.312 53.2441C109.459 53.4541 109.543 53.79 109.606 54.252C109.669 54.7349 109.69 55.4068 109.69 56.2677V57.7376H109.669Z" fill="white"/>
</svg>
