<svg width="50" height="70" viewBox="0 0 50 70" fill="none" xmlns="http://www.w3.org/2000/svg">
<path d="M38.0997 2.00006C38.129 1.99576 38.1588 1.99851 38.1865 2.00784L38.2209 2.02778C38.2576 2.04906 38.286 2.08215 38.3015 2.12166C38.3169 2.16115 38.3186 2.20474 38.306 2.24528L38.3056 2.24672L30.4262 27.8492L29.6297 30.4375H32.3377H46.8759H46.8767C46.9133 30.4375 46.9491 30.4482 46.9797 30.4683C47.0103 30.4884 47.0344 30.5171 47.0489 30.5507C47.0634 30.5843 47.0678 30.6214 47.0614 30.6575C47.0551 30.6936 47.0383 30.727 47.0132 30.7536L47.012 30.7549L12.012 67.9424L12.0114 67.943C11.9824 67.9739 11.9438 67.994 11.9018 68.0001C11.8599 68.0062 11.8171 67.9979 11.7805 67.9766C11.7439 67.9553 11.7156 67.9222 11.7002 67.8827C11.6847 67.8433 11.6832 67.7997 11.6957 67.7593L11.6962 67.7576L19.5755 42.1507L20.372 39.5625H17.664H3.12587H3.12507C3.08846 39.5625 3.05263 39.5518 3.02202 39.5317C2.99142 39.5116 2.96738 39.483 2.95286 39.4493C2.93835 39.4157 2.93399 39.3786 2.94034 39.3425C2.94668 39.3064 2.96345 39.273 2.98858 39.2464L2.98977 39.2451L37.9898 2.05761L37.9902 2.05712C38.0192 2.0263 38.0578 2.00619 38.0997 2.00006Z" stroke="white" stroke-width="4"/>
</svg>
