<svg width="70" height="70" viewBox="0 0 70 70" fill="none" xmlns="http://www.w3.org/2000/svg">
<path fill-rule="evenodd" clip-rule="evenodd" d="M48.5515 6.49047C49.4276 7.36666 49.4276 8.78723 48.5515 9.66339L36.5856 21.6292C35.7094 22.5054 34.289 22.5054 33.4128 21.6292L24.4384 12.6548C23.5622 11.7787 23.5622 10.3581 24.4384 9.48192C25.3145 8.60575 26.7351 8.60575 27.6113 9.48192L34.9992 16.8698L45.3784 6.49047C46.2546 5.6143 47.6753 5.6143 48.5515 6.49047Z" fill="white"/>
<path fill-rule="evenodd" clip-rule="evenodd" d="M48.5527 33.4136C49.4289 34.2898 49.4289 35.7102 48.5527 36.5864L39.5784 45.561C38.7023 46.4371 37.2816 46.4371 36.4054 45.561L32.0091 41.1644L24.6211 48.5523C23.7449 49.4285 22.3243 49.4285 21.4482 48.5523C20.572 47.6761 20.572 46.2554 21.4482 45.3792L30.4224 36.405C31.2986 35.5288 32.7193 35.5288 33.5955 36.405L37.9918 40.8015L45.3797 33.4136C46.2558 32.5375 47.6765 32.5375 48.5527 33.4136Z" fill="white"/>
<path fill-rule="evenodd" clip-rule="evenodd" d="M35.0006 22.2863C28.6281 22.2863 19.909 22.8296 14.5173 23.2164C12.7661 23.342 11.3818 24.691 11.2137 26.4218C10.8088 30.5909 10.3212 36.5476 10.3212 40.983C10.3212 45.4183 10.8088 51.375 11.2137 55.5438C11.3818 57.2749 12.7661 58.6238 14.5173 58.7495C19.909 59.1363 28.6281 59.6794 35.0006 59.6794C41.3733 59.6794 50.0924 59.1363 55.4841 58.7495C57.2353 58.6238 58.6195 57.2749 58.7875 55.5438C59.1926 51.375 59.68 45.4183 59.68 40.983C59.68 36.5476 59.1926 30.5909 58.7875 26.4218C58.6195 24.691 57.2353 23.342 55.4841 23.2164C50.0924 22.8296 41.3733 22.2863 35.0006 22.2863ZM14.1963 18.7407C19.5899 18.3538 28.4514 17.7991 35.0006 17.7991C41.55 17.7991 50.4114 18.3538 55.8049 18.7407C59.7217 19.0217 62.8726 22.0629 63.2538 25.9881C63.6598 30.168 64.1673 36.3122 64.1673 40.983C64.1673 45.6537 63.6598 51.798 63.2538 55.9778C62.8726 59.9028 59.7217 62.9443 55.8049 63.2252C50.4114 63.6119 41.5497 64.1667 35.0006 64.1667C28.4514 64.1667 19.5899 63.6119 14.1963 63.2252C10.2795 62.9443 7.12875 59.9028 6.74751 55.9778C6.34154 51.798 5.83398 45.6537 5.83398 40.983C5.83398 36.3122 6.34154 30.168 6.74751 25.9881C7.12875 22.0629 10.2795 19.0217 14.1963 18.7407Z" fill="white"/>
</svg>
