<svg width="73" height="35" viewBox="0 0 73 35" fill="none" xmlns="http://www.w3.org/2000/svg">
<path d="M1.07157 15.1573C1.97277 9.47717 6.12672 4.47386 12.083 1.87553C15.6737 0.30444 19.9122 -0.323994 23.6718 0.159417C27.1077 0.594487 30.5575 1.86344 33.2048 3.67623L34.0215 4.23216L33.6131 4.67931C32.3318 6.08121 30.7688 8.46201 30.1351 9.96058C29.9943 10.299 29.8535 10.589 29.8394 10.6132C29.8112 10.6374 29.3606 10.3111 28.8396 9.90016C24.9955 6.87883 19.6024 6.41959 15.0683 8.7158C13.8009 9.3684 11.8437 11.0483 11.0833 12.1359C9.647 14.2267 9.09784 16.5954 9.52028 18.8433C10.7172 25.2243 18.5604 28.9586 25.5869 26.5295C28.1919 25.6231 30.473 23.7257 31.6699 21.4779C32.374 20.1606 32.5993 19.23 32.7401 17.0788C32.9936 13.3807 34.0356 10.5769 36.19 7.78523C39.2034 3.90585 43.7516 1.28335 49.2151 0.28027C50.8626 -0.0218623 54.6927 -0.0339475 56.4387 0.268185C68.4781 2.33477 75.7581 12.7765 72.0125 22.626C71.0972 25.0551 69.5342 27.2546 67.3798 29.1641C64.4227 31.7866 60.9447 33.4423 56.7767 34.2157C54.8616 34.5662 51.0456 34.5904 49.1728 34.2762C46.075 33.7444 42.8926 32.4755 40.5129 30.844L39.9215 30.421L40.3299 29.9859C41.5127 28.6928 42.9912 26.457 43.7234 24.8255C43.9065 24.4267 44.0755 24.0762 44.0895 24.052C44.1177 24.0279 44.5401 24.33 45.0471 24.7167C49.2573 28.0281 55.6643 28.1489 60.2688 25.0068C62.1557 23.7136 63.5215 21.8767 64.2256 19.6892C64.6199 18.4807 64.5776 16.0637 64.1693 14.7947C62.1838 8.81248 54.8335 5.69448 48.3139 8.05111C44.9485 9.25963 42.3435 11.9547 41.4704 15.0968C41.386 15.399 41.2592 16.5229 41.1888 17.5864C40.8509 22.5051 39.0062 26.1669 35.2043 29.4179C32.3036 31.9195 29.0931 33.4302 24.9814 34.2157C22.9396 34.6025 19.2785 34.6025 17.1523 34.2157C13.2095 33.4906 9.98495 32.0162 7.09831 29.6354C4.11311 27.1579 2.16991 24.1729 1.33912 20.8373C1.00117 19.4354 0.860359 16.4746 1.07157 15.1573Z" fill="white"/>
</svg>
