<svg width="70" height="58" viewBox="0 0 70 58" fill="none" xmlns="http://www.w3.org/2000/svg">
<path d="M17.455 13.25H14.0437C12.7323 13.25 11.666 14.3163 11.666 15.6277V19.039C11.666 20.3503 12.7323 21.4167 14.0437 21.4167H17.455C18.7663 21.4167 19.8327 20.3503 19.8327 19.039V15.6277C19.8327 14.3163 18.7663 13.25 17.455 13.25ZM17.4993 19.039C17.4993 19.0635 17.4795 19.0833 17.455 19.0833L13.9993 19.039L14.0437 15.5833L17.4993 15.6277V19.039Z" fill="white"/>
<path d="M30.289 13.25H26.8777C25.5663 13.25 24.5 14.3163 24.5 15.6277V19.039C24.5 20.3503 25.5663 21.4167 26.8777 21.4167H30.289C31.6003 21.4167 32.6667 20.3503 32.6667 19.039V15.6277C32.6667 14.3163 31.6003 13.25 30.289 13.25ZM30.3333 19.039C30.3333 19.0635 30.3135 19.0833 30.289 19.0833L26.8333 19.039L26.8777 15.5833L30.3333 15.6277V19.039Z" fill="white"/>
<path d="M39.7116 21.4167H43.123C44.4343 21.4167 45.5007 20.3503 45.5007 19.039V15.6277C45.5007 14.3163 44.4343 13.25 43.123 13.25H39.7116C38.4003 13.25 37.334 14.3163 37.334 15.6277V19.039C37.334 20.3503 38.4003 21.4167 39.7116 21.4167ZM39.7116 15.5833L43.1673 15.6277V19.039C43.1673 19.0635 43.1475 19.0833 43.123 19.0833L39.6673 19.039L39.7116 15.5833Z" fill="white"/>
<path d="M52.5437 21.4167H55.955C57.2664 21.4167 58.3327 20.3503 58.3327 19.039V15.6277C58.3327 14.3163 57.2664 13.25 55.955 13.25H52.5437C51.2323 13.25 50.166 14.3163 50.166 15.6277V19.039C50.166 20.3503 51.2323 21.4167 52.5437 21.4167ZM52.5437 15.5833L55.9993 15.6277V19.039C55.9993 19.0635 55.9784 19.0833 55.955 19.0833L52.4993 19.039L52.5437 15.5833Z" fill="white"/>
<path d="M17.455 26.0833H14.0437C12.7323 26.0833 11.666 27.1496 11.666 28.461V31.8723C11.666 33.1836 12.7323 34.25 14.0437 34.25H17.455C18.7663 34.25 19.8327 33.1836 19.8327 31.8723V28.461C19.8327 27.1496 18.7663 26.0833 17.455 26.0833ZM17.4993 31.8723C17.4993 31.8968 17.4795 31.9166 17.455 31.9166L13.9993 31.8723L14.0437 28.4166L17.4993 28.461V31.8723Z" fill="white"/>
<path d="M30.289 26.0833H26.8777C25.5663 26.0833 24.5 27.1496 24.5 28.461V31.8723C24.5 33.1836 25.5663 34.25 26.8777 34.25H30.289C31.6003 34.25 32.6667 33.1836 32.6667 31.8723V28.461C32.6667 27.1496 31.6003 26.0833 30.289 26.0833ZM30.3333 31.8723C30.3333 31.8968 30.3135 31.9166 30.289 31.9166L26.8333 31.8723L26.8777 28.4166L30.3333 28.461V31.8723Z" fill="white"/>
<path d="M39.7116 34.25H43.123C44.4343 34.25 45.5007 33.1836 45.5007 31.8723V28.461C45.5007 27.1496 44.4343 26.0833 43.123 26.0833H39.7116C38.4003 26.0833 37.334 27.1496 37.334 28.461V31.8723C37.334 33.1836 38.4003 34.25 39.7116 34.25ZM39.7116 28.4166L43.1673 28.461V31.8723C43.1673 31.8968 43.1475 31.9166 43.123 31.9166L39.6673 31.8723L39.7116 28.4166Z" fill="white"/>
<path d="M52.5437 34.25H55.955C57.2664 34.25 58.3327 33.1836 58.3327 31.8723V28.461C58.3327 27.1496 57.2664 26.0833 55.955 26.0833H52.5437C51.2323 26.0833 50.166 27.1496 50.166 28.461V31.8723C50.166 33.1836 51.2323 34.25 52.5437 34.25ZM52.5437 28.4166L55.9993 28.461V31.8723C55.9993 31.8968 55.9784 31.9166 55.955 31.9166L52.4993 31.8723L52.5437 28.4166Z" fill="white"/>
<path d="M70 47.0833V0.416656H0V47.0833H33.8333V51.75H17.5V57.5833H52.5V51.75H36.1667V47.0833H70ZM50.1667 54.0833V55.25H19.8333V54.0833H50.1667ZM2.33333 2.74999H67.6667V44.75H2.33333V2.74999Z" fill="white"/>
</svg>
