<svg width="69" height="69" viewBox="0 0 69 69" fill="none" xmlns="http://www.w3.org/2000/svg">
<path d="M40.1608 61.2845C39.6193 61.4306 39.0667 61.5608 38.5182 61.6736C37.0835 61.9658 36.1576 63.366 36.4506 64.8009C36.4671 64.8829 36.4876 64.9608 36.511 65.0391C36.9025 66.336 38.2253 67.1451 39.5787 66.869C40.2333 66.735 40.893 66.5791 41.5396 66.4051C42.954 66.0247 43.7916 64.5695 43.4111 63.1551C43.0301 61.7389 41.5752 60.9037 40.1608 61.2845Z" fill="white"/>
<path d="M21.6789 59.8081C21.1668 59.5802 20.6559 59.3335 20.1602 59.0743C18.8614 58.3971 17.2603 58.9004 16.583 60.199C16.2487 60.8378 16.2017 61.5505 16.3949 62.1901C16.5943 62.8498 17.0481 63.4321 17.7064 63.7757C18.2981 64.0839 18.9061 64.3785 19.5161 64.6505C20.8529 65.2474 22.4212 64.6481 23.0185 63.3115C23.6158 61.9736 23.0158 60.4064 21.6789 59.8081Z" fill="white"/>
<path d="M30.7969 62.1391C30.2392 62.0943 29.6735 62.031 29.1182 61.953C27.668 61.7464 26.3263 62.7554 26.1203 64.2054C26.0644 64.5995 26.0986 64.9848 26.2063 65.342C26.4953 66.2996 27.3176 67.0526 28.3736 67.2033C29.0343 67.2966 29.7068 67.3715 30.3714 67.4244C31.8315 67.5427 33.11 66.4545 33.2276 64.9953C33.3449 63.5351 32.2574 62.2566 30.7969 62.1391Z" fill="white"/>
<path d="M48.7026 57.3294C48.2419 57.6464 47.7641 57.9541 47.2831 58.2445C46.2232 58.883 45.7707 60.1461 46.1119 61.2787C46.1747 61.4862 46.2644 61.6896 46.3814 61.8844C47.1367 63.1386 48.7665 63.5414 50.021 62.7864C50.5929 62.4415 51.161 62.0746 51.7087 61.6979C52.9146 60.8677 53.2202 59.2166 52.3899 58.0108C51.5599 56.8038 49.9084 56.4993 48.7026 57.3294Z" fill="white"/>
<path d="M59.1263 50.1588C57.9385 49.3024 56.2813 49.571 55.4248 50.758C55.0976 51.2121 54.7513 51.6626 54.3969 52.0948C53.8152 52.805 53.6642 53.7257 53.9102 54.5431C54.0575 55.0296 54.3454 55.4804 54.7678 55.8267C55.9007 56.7544 57.5712 56.5879 58.4989 55.4548C58.9222 54.939 59.3354 54.4018 59.7252 53.8604C60.5819 52.6727 60.3138 51.0159 59.1263 50.1588Z" fill="white"/>
<path d="M62.8365 40.5007C61.4311 40.0901 59.9588 40.8975 59.5489 42.3032C59.3913 42.8416 59.2158 43.3822 59.0278 43.9097C58.8284 44.4649 58.8254 45.0438 58.9842 45.5681C59.2186 46.346 59.8057 47.0055 60.6279 47.3001C62.0067 47.7945 63.5241 47.0783 64.0193 45.7003C64.2442 45.0717 64.4531 44.4282 64.6392 43.7877C65.049 42.3827 64.242 40.9099 62.8365 40.5007Z" fill="white"/>
<path d="M67.8121 23.225L64.3274 24.3077C61.6828 16.2035 56.1146 9.54389 48.5781 5.49925C47.8195 5.09183 47.0499 4.71745 46.271 4.37341C46.2653 4.37072 46.2608 4.36848 46.2556 4.36504C46.223 4.35129 46.1887 4.33843 46.157 4.32437C39.2858 1.31781 31.682 0.747864 24.3931 2.72174C24.3358 2.73295 24.2786 2.74372 24.2221 2.75972C23.9787 2.8261 23.733 2.89802 23.4906 2.97038C23.0928 3.09059 22.6925 3.22007 22.2999 3.35478C22.2534 3.37078 22.2096 3.39066 22.1645 3.4086C15.6579 5.66252 10.1171 9.8181 6.16428 15.3704C6.15023 15.3896 6.13438 15.406 6.12107 15.425C5.73473 15.9676 5.3605 16.5302 5.00705 17.0978C4.98492 17.1341 4.96653 17.1719 4.94545 17.2094C4.5929 17.7812 4.2541 18.3661 3.93324 18.9626C0.657104 25.0682 -0.592678 31.89 0.259997 38.6286C0.261941 38.644 0.263735 38.6583 0.26508 38.6736C0.266426 38.6844 0.268818 38.6956 0.27136 38.7068C0.503106 40.5069 0.883767 42.3012 1.41828 44.0736C2.82191 48.7272 5.16404 52.9116 8.37917 56.5113C9.35445 57.603 11.0308 57.6972 12.1231 56.722C13.2149 55.7464 13.3101 54.0696 12.3341 52.9781C10.7291 51.182 9.38585 49.2092 8.3107 47.0837C8.29918 47.0576 8.28902 47.0308 8.27646 47.0057C8.02363 46.5042 7.78336 45.9902 7.56089 45.4757C7.55969 45.4717 7.55835 45.4693 7.55655 45.466C7.15167 44.519 6.79867 43.5441 6.49605 42.5425C3.02091 31.0201 7.45279 18.9631 16.6498 12.2218C16.7859 12.1228 16.9218 12.023 17.0592 11.927C19.4203 10.2617 22.0834 8.9412 24.998 8.06236C27.9312 7.17814 30.8974 6.80675 33.8024 6.89376C33.8494 6.89586 33.895 6.8972 33.9415 6.89855C34.1188 6.90393 34.2955 6.91335 34.472 6.92322C34.5433 6.92695 34.6143 6.93084 34.6855 6.93533C43.744 7.50198 52.0972 12.5331 56.7865 20.4371C56.7891 20.4416 56.7909 20.4467 56.794 20.4512C56.8635 20.5686 56.9314 20.6858 56.9996 20.8045C57.0077 20.8178 57.0165 20.8296 57.0243 20.8432C57.9215 22.4165 58.6764 24.1002 59.2635 25.882L55.779 26.9653C54.8112 27.266 54.7159 27.9623 55.5653 28.5128L63.1485 33.4246C63.9986 33.9756 65.0126 33.6601 65.4003 32.7255L68.8647 24.3797C69.2519 23.4443 68.7792 22.9244 67.8121 23.225Z" fill="white"/>
<path d="M23.2177 34.572C20.6622 36.4651 18.9192 38.1074 17.9901 39.4985C17.0619 40.8894 16.5051 42.3744 16.3223 43.9534H32.3105V39.6096H23.989C24.4776 39.1292 24.9027 38.7416 25.2648 38.4456C25.6271 38.1479 26.3439 37.6297 27.4171 36.888C29.2223 35.6146 30.4677 34.4457 31.1527 33.3811C31.837 32.3175 32.1795 31.2009 32.1795 30.032C32.1795 28.9332 31.8809 27.9408 31.2835 27.0549C30.6856 26.1699 29.8652 25.5133 28.8231 25.0858C27.7811 24.659 26.322 24.4447 24.4464 24.4447C22.6501 24.4447 21.2439 24.6697 20.2273 25.1196C19.2118 25.5687 18.424 26.2139 17.8661 27.0549C17.3077 27.8976 16.9244 29.0684 16.7146 30.568L22.0528 30.9997C22.201 29.9188 22.4913 29.1639 22.9227 28.7368C23.3549 28.3093 23.9101 28.0954 24.5914 28.0954C25.2452 28.0954 25.7884 28.3029 26.2199 28.7173C26.6514 29.1309 26.8676 29.6307 26.8676 30.2155C26.8676 30.7566 26.6496 31.3276 26.2132 31.9298C25.777 32.5314 24.7783 33.4127 23.2177 34.572Z" fill="white"/>
<path d="M48.3898 43.9535V40.3683H50.7968V36.2331H48.3898V24.4449H43.745L34.0371 35.9853V40.3683H43.745V43.9535H48.3898ZM38.616 36.2331L43.745 30.1978V36.2331H38.616Z" fill="white"/>
</svg>
