<svg width="200" height="58" viewBox="0 0 200 58" fill="none" xmlns="http://www.w3.org/2000/svg">
<path d="M198.889 51.1144C198.889 54.1935 196.343 56.6876 193.194 56.6876H6.81378C3.66608 56.6876 1.11108 54.1935 1.11108 51.1144V6.6705C1.11108 3.59291 3.66608 1.09009 6.81378 1.09009H193.192C196.343 1.09009 198.887 3.59291 198.887 6.6705L198.889 51.1144Z" fill="black"/>
<path d="M192.593 1.15742C196.022 1.15742 198.813 3.87839 198.813 7.22228V50.5556C198.813 53.8995 196.022 56.6205 192.593 56.6205H7.40741C3.97778 56.6205 1.18704 53.8995 1.18704 50.5556V7.22228C1.18704 3.87839 3.97778 1.15742 7.40741 1.15742H192.593ZM192.593 5.72205e-05H7.40741C3.33519 5.72205e-05 0 3.25186 0 7.22228V50.5556C0 54.526 3.33519 57.7778 7.40741 57.7778H192.593C196.665 57.7778 200 54.526 200 50.5556V7.22228C200 3.25186 196.665 5.72205e-05 192.593 5.72205e-05Z" fill="#A6A6A6"/>
<path d="M44.634 28.5769C44.5911 23.9214 48.5437 21.6565 48.7244 21.5511C46.4859 18.369 43.0163 17.9342 41.797 17.8995C38.8829 17.6005 36.0563 19.5997 34.5718 19.5997C33.0577 19.5997 30.7718 17.9284 28.3081 17.9775C25.1377 18.0252 22.1718 19.8149 20.5451 22.594C17.1881 28.2605 19.6918 36.5878 22.9081 41.1681C24.517 43.4113 26.397 45.916 28.8577 45.8279C31.2651 45.7311 32.1644 44.3314 35.0696 44.3314C37.9481 44.3314 38.7926 45.8279 41.3022 45.7715C43.8859 45.7311 45.5126 43.5182 47.0651 41.2548C48.9244 38.6837 49.6711 36.1515 49.7007 36.0215C49.64 36.0013 44.6829 34.1568 44.634 28.5769Z" fill="white"/>
<path d="M39.8933 14.8864C41.1881 13.3077 42.074 11.1598 41.8281 8.9801C39.954 9.06099 37.6103 10.244 36.2607 11.7881C35.0666 13.1488 34 15.379 34.2755 17.4763C36.3807 17.6294 38.5422 16.4407 39.8933 14.8864Z" fill="white"/>
<path d="M72.6666 14.4574C72.6666 16.1576 72.1436 17.4373 71.0992 18.2968C70.1318 19.0898 68.7569 19.487 66.9762 19.487C66.0932 19.487 65.3377 19.4495 64.7051 19.3743V10.0851C65.5303 9.95512 66.4192 9.88867 67.3792 9.88867C69.0755 9.88867 70.354 10.2483 71.2162 10.9677C72.1821 11.7809 72.6666 12.9437 72.6666 14.4574ZM71.0295 14.4993C71.0295 13.3972 70.7303 12.5522 70.1318 11.9629C69.5332 11.375 68.6592 11.0803 67.508 11.0803C67.0192 11.0803 66.6029 11.1121 66.2577 11.1786V18.2404C66.4488 18.2693 66.7984 18.2823 67.3066 18.2823C68.4947 18.2823 69.4118 17.9602 70.0577 17.316C70.7036 16.6718 71.0295 15.7329 71.0295 14.4993Z" fill="white"/>
<path d="M81.3466 15.9423C81.3466 16.9896 81.0399 17.8476 80.4266 18.5207C79.7836 19.2126 78.9318 19.5578 77.8681 19.5578C76.8429 19.5578 76.0266 19.227 75.4177 18.5626C74.8103 17.8996 74.5066 17.0632 74.5066 16.055C74.5066 15.0006 74.8192 14.1353 75.4473 13.4637C76.0755 12.792 76.9199 12.4554 77.9836 12.4554C79.0088 12.4554 79.8325 12.7862 80.4562 13.4492C81.0488 14.0934 81.3466 14.9254 81.3466 15.9423ZM79.7362 15.9914C79.7362 15.3631 79.597 14.8243 79.3199 14.3751C78.994 13.832 78.5303 13.5604 77.9273 13.5604C77.3036 13.5604 76.8296 13.832 76.5036 14.3751C76.2251 14.8243 76.0873 15.3718 76.0873 16.0189C76.0873 16.6472 76.2266 17.186 76.5036 17.6352C76.8399 18.1783 77.3081 18.4499 77.9125 18.4499C78.5051 18.4499 78.9703 18.174 79.3051 17.6208C79.5925 17.1629 79.7362 16.6198 79.7362 15.9914Z" fill="white"/>
<path d="M92.985 12.5941L90.7998 19.4032H89.3776L88.4724 16.4464C88.2428 15.7083 88.0561 14.9746 87.9109 14.2466H87.8827C87.7479 14.9948 87.5613 15.7271 87.3213 16.4464L86.3598 19.4032H84.9213L82.8665 12.5941H84.462L85.2516 15.8311C85.4427 16.5967 85.5998 17.3261 85.7257 18.0166H85.7539C85.8694 17.4474 86.0605 16.7223 86.3302 15.8456L87.3213 12.5956H88.5865L89.5361 15.7762C89.7657 16.5519 89.9524 17.2987 90.0961 18.018H90.139C90.2442 17.3175 90.4028 16.5707 90.6131 15.7762L91.4605 12.5956H92.985V12.5941Z" fill="white"/>
<path d="M101.034 19.4032H99.4815V15.5032C99.4815 14.3014 99.0133 13.7005 98.0741 13.7005C97.6133 13.7005 97.2415 13.8652 96.9526 14.1959C96.6667 14.5267 96.5215 14.9167 96.5215 15.3631V19.4017H94.9689V14.5397C94.9689 13.9417 94.9496 13.2932 94.9126 12.5912H96.277L96.3496 13.6557H96.3926C96.5733 13.3249 96.843 13.0519 97.197 12.8338C97.6178 12.5796 98.0889 12.451 98.6044 12.451C99.2563 12.451 99.7985 12.6562 100.23 13.0678C100.766 13.5719 101.034 14.3245 101.034 15.3241V19.4032Z" fill="white"/>
<path d="M105.316 19.4032H103.764V9.46973H105.316V19.4032Z" fill="white"/>
<path d="M114.456 15.9423C114.456 16.9896 114.15 17.8476 113.536 18.5207C112.893 19.2126 112.04 19.5578 110.978 19.5578C109.951 19.5578 109.135 19.227 108.527 18.5626C107.92 17.8996 107.616 17.0632 107.616 16.055C107.616 15.0006 107.929 14.1353 108.557 13.4637C109.185 12.792 110.03 12.4554 111.092 12.4554C112.118 12.4554 112.941 12.7862 113.566 13.4492C114.158 14.0934 114.456 14.9254 114.456 15.9423ZM112.844 15.9914C112.844 15.3631 112.705 14.8243 112.428 14.3751C112.104 13.832 111.638 13.5604 111.037 13.5604C110.412 13.5604 109.938 13.832 109.613 14.3751C109.335 14.8243 109.197 15.3718 109.197 16.0189C109.197 16.6472 109.336 17.186 109.613 17.6352C109.95 18.1783 110.418 18.4499 111.022 18.4499C111.615 18.4499 112.078 18.174 112.413 17.6208C112.702 17.1629 112.844 16.6198 112.844 15.9914Z" fill="white"/>
<path d="M121.97 19.4032H120.576L120.461 18.6189H120.418C119.941 19.2443 119.261 19.5578 118.378 19.5578C117.718 19.5578 117.185 19.3512 116.783 18.941C116.419 18.5683 116.237 18.1047 116.237 17.5543C116.237 16.7223 116.592 16.0882 117.308 15.6491C118.022 15.21 119.026 14.9948 120.32 15.0049V14.8778C120.32 13.9808 119.837 13.533 118.869 13.533C118.181 13.533 117.573 13.702 117.049 14.0371L116.733 13.0433C117.382 12.6519 118.183 12.4554 119.129 12.4554C120.954 12.4554 121.869 13.3943 121.869 15.2721V17.7797C121.869 18.46 121.903 19.0017 121.97 19.4032ZM120.358 17.0632V16.0131C118.646 15.9842 117.789 16.4421 117.789 17.3853C117.789 17.7407 117.887 18.0064 118.087 18.1841C118.287 18.3618 118.542 18.4499 118.846 18.4499C119.186 18.4499 119.505 18.3444 119.795 18.135C120.087 17.9241 120.266 17.6569 120.333 17.329C120.349 17.2553 120.358 17.1658 120.358 17.0632Z" fill="white"/>
<path d="M130.792 19.4032H129.415L129.342 18.3097H129.299C128.859 19.1417 128.109 19.5577 127.056 19.5577C126.215 19.5577 125.514 19.2356 124.958 18.5914C124.403 17.9472 124.126 17.1108 124.126 16.0838C124.126 14.9817 124.426 14.0891 125.031 13.4073C125.616 12.7717 126.333 12.4539 127.186 12.4539C128.124 12.4539 128.781 12.7616 129.154 13.3784H129.183V9.46973H130.738V17.5687C130.738 18.2317 130.755 18.8427 130.792 19.4032ZM129.183 16.5316V15.3963C129.183 15.1998 129.169 15.0409 129.141 14.9196C129.053 14.5556 128.865 14.2494 128.579 14.0024C128.29 13.7554 127.942 13.6312 127.541 13.6312C126.961 13.6312 126.508 13.8551 126.175 14.3043C125.844 14.7535 125.677 15.3269 125.677 16.0275C125.677 16.7006 125.835 17.2466 126.154 17.6669C126.49 18.1147 126.944 18.3386 127.511 18.3386C128.021 18.3386 128.428 18.1523 128.738 17.7782C129.037 17.4329 129.183 17.0169 129.183 16.5316Z" fill="white"/>
<path d="M144.071 15.9423C144.071 16.9896 143.764 17.8476 143.151 18.5207C142.508 19.2126 141.658 19.5578 140.592 19.5578C139.569 19.5578 138.752 19.227 138.142 18.5626C137.535 17.8996 137.231 17.0632 137.231 16.055C137.231 15.0006 137.544 14.1353 138.172 13.4637C138.8 12.792 139.644 12.4554 140.709 12.4554C141.733 12.4554 142.558 12.7862 143.181 13.4492C143.773 14.0934 144.071 14.9254 144.071 15.9423ZM142.462 15.9914C142.462 15.3631 142.323 14.8243 142.046 14.3751C141.718 13.832 141.256 13.5604 140.652 13.5604C140.029 13.5604 139.555 13.832 139.228 14.3751C138.949 14.8243 138.812 15.3718 138.812 16.0189C138.812 16.6472 138.951 17.186 139.228 17.6352C139.564 18.1783 140.032 18.4499 140.637 18.4499C141.229 18.4499 141.696 18.174 142.031 17.6208C142.317 17.1629 142.462 16.6198 142.462 15.9914Z" fill="white"/>
<path d="M152.419 19.4032H150.868V15.5032C150.868 14.3014 150.4 13.7005 149.459 13.7005C148.998 13.7005 148.626 13.8652 148.339 14.1959C148.052 14.5267 147.908 14.9167 147.908 15.3631V19.4017H146.354V14.5397C146.354 13.9417 146.336 13.2932 146.299 12.5912H147.662L147.735 13.6557H147.778C147.96 13.3249 148.229 13.0519 148.582 12.8338C149.004 12.5796 149.474 12.451 149.991 12.451C150.641 12.451 151.184 12.6562 151.615 13.0678C152.152 13.5719 152.419 14.3245 152.419 15.3241V19.4032Z" fill="white"/>
<path d="M162.868 13.728H161.158V17.0358C161.158 17.8764 161.462 18.2968 162.064 18.2968C162.342 18.2968 162.573 18.2736 162.755 18.226L162.795 19.3743C162.489 19.487 162.086 19.5433 161.59 19.5433C160.976 19.5433 160.499 19.3613 160.154 18.9973C159.807 18.6333 159.635 18.0209 159.635 17.1614V13.728H158.615V12.5941H159.635V11.3461L161.157 10.8983V12.5926H162.867V13.728H162.868Z" fill="white"/>
<path d="M171.087 19.4032H169.533V15.5321C169.533 14.3115 169.065 13.7005 168.127 13.7005C167.407 13.7005 166.916 14.0544 166.646 14.7622C166.6 14.9109 166.573 15.0929 166.573 15.3067V19.4017H165.022V9.46973H166.573V13.5734H166.603C167.092 12.8266 167.793 12.4539 168.701 12.4539C169.344 12.4539 169.876 12.6591 170.298 13.0707C170.824 13.5835 171.087 14.3462 171.087 15.3544V19.4032Z" fill="white"/>
<path d="M179.566 15.6765C179.566 15.948 179.545 16.1763 179.508 16.3626H174.852C174.872 17.0357 175.095 17.5485 175.526 17.9038C175.92 18.2216 176.428 18.3805 177.05 18.3805C177.739 18.3805 178.367 18.2736 178.933 18.0584L179.176 19.1099C178.514 19.3902 177.735 19.5303 176.832 19.5303C175.751 19.5303 174.899 19.2197 174.283 18.5986C173.664 17.9775 173.357 17.144 173.357 16.0983C173.357 15.0713 173.643 14.2162 174.219 13.5344C174.821 12.8064 175.634 12.4424 176.661 12.4424C177.665 12.4424 178.428 12.8064 178.944 13.5344C179.36 14.1122 179.566 14.8272 179.566 15.6765ZM178.084 15.285C178.096 14.8358 177.994 14.4487 177.784 14.1223C177.514 13.7019 177.104 13.491 176.548 13.491C176.041 13.491 175.628 13.6962 175.312 14.1078C175.055 14.4357 174.902 14.8272 174.852 15.285H178.084Z" fill="white"/>
<path d="M79.474 45.5058H76.1096L74.2666 39.8594H67.8607L66.1051 45.5058H62.8296L69.1763 26.2831H73.0963L79.474 45.5058ZM73.7111 37.4905L72.0444 32.4711C71.8681 31.9583 71.5377 30.7507 71.0503 28.8499H70.9911C70.797 29.6674 70.4844 30.875 70.0548 32.4711L68.4177 37.4905H73.7111Z" fill="white"/>
<path d="M95.7956 38.4049C95.7956 40.7622 95.1423 42.6256 93.8356 43.9935C92.6652 45.2111 91.2119 45.8192 89.4771 45.8192C87.6045 45.8192 86.2593 45.1635 85.44 43.8519H85.3808V51.1536H82.2223V36.2079C82.2223 34.7259 82.1823 33.2049 82.1052 31.6449H84.883L85.0593 33.8419H85.1186C86.1719 32.1866 87.7704 31.3604 89.9156 31.3604C91.5926 31.3604 92.9926 32.006 94.1126 33.2988C95.2356 34.593 95.7956 36.2946 95.7956 38.4049ZM92.5778 38.5176C92.5778 37.1685 92.2667 36.0562 91.6415 35.1809C90.9586 34.268 90.0415 33.8116 88.8919 33.8116C88.1126 33.8116 87.4045 34.0658 86.7719 34.567C86.1378 35.0726 85.723 35.7327 85.5289 36.5502C85.4311 36.9316 85.3823 37.2436 85.3823 37.4891V39.8002C85.3823 40.8085 85.6993 41.6592 86.3334 42.354C86.9674 43.0488 87.7911 43.3955 88.8045 43.3955C89.9941 43.3955 90.92 42.9477 91.5823 42.055C92.246 41.1609 92.5778 39.9822 92.5778 38.5176Z" fill="white"/>
<path d="M112.147 38.4049C112.147 40.7622 111.493 42.6256 110.185 43.9935C109.016 45.2111 107.563 45.8192 105.828 45.8192C103.956 45.8192 102.61 45.1635 101.793 43.8519H101.733V51.1536H98.5748V36.2079C98.5748 34.7259 98.5348 33.2049 98.4578 31.6449H101.236L101.412 33.8419H101.471C102.523 32.1866 104.121 31.3604 106.268 31.3604C107.944 31.3604 109.344 32.006 110.467 33.2988C111.585 34.593 112.147 36.2946 112.147 38.4049ZM108.929 38.5176C108.929 37.1685 108.616 36.0562 107.991 35.1809C107.308 34.268 106.394 33.8116 105.243 33.8116C104.462 33.8116 103.756 34.0658 103.121 34.567C102.487 35.0726 102.074 35.7327 101.88 36.5502C101.784 36.9316 101.733 37.2436 101.733 37.4891V39.8002C101.733 40.8085 102.05 41.6592 102.681 42.354C103.316 43.0474 104.139 43.3955 105.156 43.3955C106.345 43.3955 107.271 42.9477 107.933 42.055C108.597 41.1609 108.929 39.9822 108.929 38.5176Z" fill="white"/>
<path d="M130.428 40.1151C130.428 41.7502 129.846 43.0806 128.677 44.1076C127.393 45.2299 125.604 45.7904 123.307 45.7904C121.185 45.7904 119.484 45.3917 118.197 44.5929L118.929 42.0261C120.316 42.8437 121.837 43.2539 123.495 43.2539C124.684 43.2539 125.61 42.991 126.276 42.4681C126.938 41.9452 127.268 41.2432 127.268 40.3679C127.268 39.5879 126.996 38.9307 126.449 38.3977C125.905 37.8647 124.997 37.3692 123.729 36.9114C120.277 35.6561 118.553 33.8174 118.553 31.3994C118.553 29.8191 119.157 28.5235 120.367 27.5152C121.573 26.5056 123.182 26.0015 125.194 26.0015C126.988 26.0015 128.479 26.3062 129.668 26.9144L128.879 29.4248C127.767 28.8355 126.511 28.5408 125.105 28.5408C123.994 28.5408 123.126 28.808 122.504 29.3396C121.978 29.8148 121.714 30.394 121.714 31.0801C121.714 31.8399 122.015 32.4682 122.619 32.9622C123.145 33.4187 124.101 33.9127 125.487 34.4457C127.184 35.1116 128.43 35.8901 129.231 36.7828C130.03 37.6726 130.428 38.7862 130.428 40.1151Z" fill="white"/>
<path d="M140.871 33.9561H137.39V40.6857C137.39 42.3974 138.003 43.2525 139.233 43.2525C139.797 43.2525 140.265 43.2048 140.636 43.1095L140.723 45.4481C140.101 45.6748 139.282 45.789 138.267 45.789C137.019 45.789 136.044 45.4177 135.341 44.6767C134.64 43.9343 134.287 42.6892 134.287 40.94V33.9532H132.213V31.6421H134.287V29.1042L137.39 28.1913V31.6421H140.871V33.9561Z" fill="white"/>
<path d="M156.579 38.4613C156.579 40.5918 155.954 42.341 154.707 43.7089C153.398 45.1173 151.662 45.8193 149.498 45.8193C147.412 45.8193 145.751 45.1447 144.513 43.7956C143.274 42.4465 142.655 40.7435 142.655 38.6909C142.655 36.543 143.292 34.7837 144.57 33.4158C145.846 32.0465 147.567 31.3618 149.732 31.3618C151.818 31.3618 153.496 32.0364 154.763 33.3869C155.975 34.697 156.579 36.3885 156.579 38.4613ZM153.302 38.5609C153.302 37.2826 153.022 36.1863 152.455 35.2719C151.793 34.1655 150.846 33.6137 149.619 33.6137C148.35 33.6137 147.385 34.1669 146.723 35.2719C146.156 36.1877 145.876 37.3014 145.876 38.6187C145.876 39.897 146.156 40.9934 146.723 41.9063C147.406 43.0127 148.36 43.5645 149.591 43.5645C150.797 43.5645 151.744 43.0012 152.427 41.8774C153.009 40.9457 153.302 39.8378 153.302 38.5609Z" fill="white"/>
<path d="M166.846 34.3532C166.533 34.2969 166.2 34.268 165.85 34.268C164.739 34.268 163.88 34.6768 163.276 35.4958C162.75 36.218 162.486 37.1309 162.486 38.233V45.5058H159.329L159.359 36.01C159.359 34.4125 159.319 32.9579 159.24 31.6464H161.991L162.107 34.2984H162.194C162.527 33.3869 163.053 32.6531 163.773 32.1028C164.477 31.6074 165.237 31.3604 166.056 31.3604C166.348 31.3604 166.612 31.3806 166.846 31.4167V34.3532Z" fill="white"/>
<path d="M180.972 37.9196C180.972 38.4714 180.935 38.9365 180.856 39.3163H171.381C171.418 40.6857 171.875 41.7329 172.755 42.4551C173.554 43.1008 174.587 43.4243 175.855 43.4243C177.258 43.4243 178.538 43.2062 179.689 42.7686L180.184 44.9064C178.838 45.4784 177.25 45.7629 175.418 45.7629C173.213 45.7629 171.483 45.1302 170.224 43.8663C168.967 42.6025 168.338 40.9052 168.338 38.7761C168.338 36.686 168.923 34.9455 170.095 33.5573C171.321 32.0753 172.979 31.3344 175.065 31.3344C177.114 31.3344 178.665 32.0753 179.718 33.5573C180.552 34.7346 180.972 36.1906 180.972 37.9196ZM177.96 37.1208C177.981 36.2079 177.775 35.4192 177.347 34.7533C176.8 33.8968 175.96 33.4692 174.829 33.4692C173.797 33.4692 172.957 33.8867 172.315 34.7245C171.79 35.3904 171.477 36.1891 171.381 37.1193H177.96V37.1208Z" fill="white"/>
</svg>
