<svg width="200" height="58" viewBox="0 0 200 58" fill="none" xmlns="http://www.w3.org/2000/svg">
<path d="M192.593 58H7.40741C3.33519 58 0 54.7482 0 50.7778V7.44445C0 3.47403 3.33519 0.222223 7.40741 0.222223H192.593C196.665 0.222223 200 3.47403 200 7.44445V50.7778C200 54.7482 196.665 58 192.593 58Z" fill="black"/>
<path d="M192.593 1.37958C196.022 1.37958 198.813 4.10055 198.813 7.44445V50.7778C198.813 54.1217 196.022 56.8426 192.593 56.8426H7.40741C3.97778 56.8426 1.18704 54.1217 1.18704 50.7778V7.44445C1.18704 4.10055 3.97778 1.37958 7.40741 1.37958H192.593ZM192.593 0.222223H7.40741C3.33519 0.222223 0 3.47403 0 7.44445V50.7778C0 54.7482 3.33519 58 7.40741 58H192.593C196.665 58 200 54.7482 200 50.7778V7.44445C200 3.47403 196.665 0.222223 192.593 0.222223Z" fill="#A6A6A6"/>
<path d="M15.4593 11.1116C15.0241 11.5557 14.7722 12.2473 14.7722 13.1428V45.0867C14.7722 45.9823 15.0241 46.6738 15.4593 47.118L15.5667 47.2155L33.9259 29.3224V28.8999L15.5667 11.0068L15.4593 11.1116Z" fill="url(#paint0_linear_449_1855)"/>
<path d="M40.0387 35.2898L33.9258 29.3224V28.8999L40.0462 22.9326L40.1832 23.0102L47.4313 27.0312C49.4999 28.1723 49.4999 30.0501 47.4313 31.1984L40.1832 35.2122L40.0387 35.2898Z" fill="url(#paint1_linear_449_1855)"/>
<path d="M40.1833 35.2121L33.9259 29.1112L15.4592 47.118C16.1463 47.8221 17.2666 47.907 18.5407 47.2028L40.1833 35.2121Z" fill="url(#paint2_linear_449_1855)"/>
<path d="M40.1833 23.0102L18.5407 11.0195C17.2666 10.3226 16.1463 10.4075 15.4592 11.1116L33.9259 29.1112L40.1833 23.0102Z" fill="url(#paint3_linear_449_1855)"/>
<path d="M70.2481 15.0187C70.2481 16.2248 69.8778 17.1908 69.1481 17.9112C68.3092 18.7653 67.2166 19.195 65.8778 19.195C64.5981 19.195 63.5055 18.758 62.6092 17.8968C61.7111 17.0229 61.2629 15.9504 61.2629 14.6666C61.2629 13.3829 61.7111 12.3104 62.6092 11.4437C63.5055 10.5753 64.5981 10.1383 65.8778 10.1383C66.5148 10.1383 67.1222 10.2665 67.7018 10.5048C68.2796 10.745 68.75 11.07 69.0907 11.4708L68.3166 12.2328C67.7222 11.5484 66.9129 11.2108 65.8778 11.2108C64.9444 11.2108 64.1352 11.5286 63.4481 12.1696C62.7685 12.8123 62.4278 13.6447 62.4278 14.6666C62.4278 15.6886 62.7685 16.5282 63.4481 17.1709C64.1352 17.8047 64.9444 18.1297 65.8778 18.1297C66.8685 18.1297 67.7018 17.8047 68.3592 17.1637C68.7926 16.7394 69.0389 16.1544 69.1037 15.4069H65.8778V14.3633H70.1815C70.2333 14.589 70.2481 14.8075 70.2481 15.0187Z" fill="white" stroke="white" stroke-width="0.16" stroke-miterlimit="10"/>
<path d="M77.076 11.4004H73.0334V14.1448H76.6778V15.1884H73.0334V17.9329H77.076V18.9964H71.8889V10.3369H77.076V11.4004Z" fill="white" stroke="white" stroke-width="0.16" stroke-miterlimit="10"/>
<path d="M81.8943 18.9964H80.7499V11.4004H78.2703V10.3369H84.3758V11.4004H81.8943V18.9964Z" fill="white" stroke="white" stroke-width="0.16" stroke-miterlimit="10"/>
<path d="M88.7944 18.9964V10.3369H89.937V18.9964H88.7944Z" fill="white" stroke="white" stroke-width="0.16" stroke-miterlimit="10"/>
<path d="M95.0017 18.9964H93.8666V11.4004H91.3777V10.3369H97.4906V11.4004H95.0017V18.9964Z" fill="white" stroke="white" stroke-width="0.16" stroke-miterlimit="10"/>
<path d="M109.05 17.8823C108.174 18.758 107.089 19.195 105.794 19.195C104.493 19.195 103.407 18.758 102.531 17.8823C101.657 17.0084 101.222 15.9359 101.222 14.6666C101.222 13.3973 101.657 12.3248 102.531 11.4509C103.407 10.5753 104.493 10.1383 105.794 10.1383C107.081 10.1383 108.167 10.5753 109.043 11.4582C109.924 12.3393 110.359 13.4046 110.359 14.6666C110.359 15.9359 109.924 17.0084 109.05 17.8823ZM103.378 17.1565C104.037 17.8047 104.839 18.1297 105.794 18.1297C106.743 18.1297 107.552 17.8047 108.204 17.1565C108.861 16.5083 109.194 15.6759 109.194 14.6666C109.194 13.6573 108.861 12.825 108.204 12.1768C107.552 11.5286 106.743 11.2036 105.794 11.2036C104.839 11.2036 104.037 11.5286 103.378 12.1768C102.72 12.825 102.387 13.6573 102.387 14.6666C102.387 15.6759 102.72 16.5083 103.378 17.1565Z" fill="white" stroke="white" stroke-width="0.16" stroke-miterlimit="10"/>
<path d="M111.965 18.9964V10.3369H113.354L117.672 17.0716H117.722L117.672 15.4069V10.3369H118.815V18.9964H117.622L113.1 11.9294H113.05L113.1 13.6014V18.9964H111.965Z" fill="white" stroke="white" stroke-width="0.16" stroke-miterlimit="10"/>
<path d="M100.941 31.6425C97.4611 31.6425 94.6186 34.2245 94.6186 37.7868C94.6186 41.3203 97.4611 43.9293 100.941 43.9293C104.428 43.9293 107.27 41.3203 107.27 37.7868C107.27 34.2245 104.428 31.6425 100.941 31.6425ZM100.941 41.5099C99.0315 41.5099 97.3889 39.9734 97.3889 37.7868C97.3889 35.5714 99.0315 34.062 100.941 34.062C102.85 34.062 104.5 35.5714 104.5 37.7868C104.5 39.9734 102.85 41.5099 100.941 41.5099ZM87.1463 31.6425C83.6593 31.6425 80.8241 34.2245 80.8241 37.7868C80.8241 41.3203 83.6593 43.9293 87.1463 43.9293C90.6315 43.9293 93.4686 41.3203 93.4686 37.7868C93.4686 34.2245 90.6315 31.6425 87.1463 31.6425ZM87.1463 41.5099C85.2352 41.5099 83.5871 39.9734 83.5871 37.7868C83.5871 35.5714 85.2352 34.062 87.1463 34.062C89.0556 34.062 90.6982 35.5714 90.6982 37.7868C90.6982 39.9734 89.0556 41.5099 87.1463 41.5099ZM70.7315 33.5257V36.1366H77.126C76.9389 37.5955 76.4389 38.668 75.6723 39.4155C74.7389 40.3182 73.2852 41.3203 70.7315 41.3203C66.7963 41.3203 63.7149 38.2238 63.7149 34.387C63.7149 30.5502 66.7963 27.4537 70.7315 27.4537C72.8593 27.4537 74.4075 28.2643 75.55 29.3152L77.4371 27.4753C75.8389 25.9875 73.713 24.8446 70.7315 24.8446C65.3352 24.8446 60.8 29.1256 60.8 34.387C60.8 39.6484 65.3352 43.9293 70.7315 43.9293C73.6482 43.9293 75.8389 42.9977 77.5612 41.2499C79.326 39.5292 79.876 37.1098 79.876 35.1561C79.876 34.5495 79.8241 33.9916 79.7315 33.5257H70.7315ZM137.854 35.5498C137.333 34.1757 135.728 31.6425 132.457 31.6425C129.217 31.6425 126.519 34.1324 126.519 37.7868C126.519 41.2282 129.189 43.9293 132.769 43.9293C135.663 43.9293 137.333 42.2086 138.02 41.2066L135.872 39.8109C135.156 40.8328 134.18 41.5099 132.769 41.5099C131.367 41.5099 130.361 40.8834 129.717 39.6484L138.144 36.2485L137.854 35.5498ZM129.261 37.5955C129.189 35.2266 131.148 34.0132 132.552 34.0132C133.652 34.0132 134.585 34.5495 134.896 35.3168L129.261 37.5955ZM122.411 43.5556H125.182V25.5H122.411V43.5556ZM117.874 33.0111H117.782C117.159 32.2925 115.972 31.6425 114.469 31.6425C111.313 31.6425 108.428 34.3436 108.428 37.8067C108.428 41.2499 111.313 43.9293 114.469 43.9293C115.972 43.9293 117.159 43.2739 117.782 42.5336H117.874V43.4148C117.874 45.7638 116.587 47.0259 114.511 47.0259C112.819 47.0259 111.769 45.8342 111.335 44.8321L108.926 45.8125C109.62 47.4411 111.459 49.4453 114.511 49.4453C117.759 49.4453 120.5 47.582 120.5 43.0482V32.0163H117.874V33.0111ZM114.706 41.5099C112.796 41.5099 111.198 39.9517 111.198 37.8067C111.198 35.6418 112.796 34.062 114.706 34.062C116.587 34.062 118.07 35.6418 118.07 37.8067C118.07 39.9517 116.587 41.5099 114.706 41.5099ZM150.824 25.5H144.198V43.5556H146.961V36.7143H150.824C153.893 36.7143 156.902 34.5495 156.902 31.1063C156.902 27.6649 153.885 25.5 150.824 25.5ZM150.896 34.2028H146.961V28.0116H150.896C152.959 28.0116 154.137 29.6817 154.137 31.1063C154.137 32.5038 152.959 34.2028 150.896 34.2028ZM167.976 31.6082C165.98 31.6082 163.904 32.4677 163.05 34.3725L165.502 35.3746C166.03 34.3725 167 34.0475 168.026 34.0475C169.459 34.0475 170.913 34.8871 170.935 36.3695V36.5591C170.435 36.2774 169.365 35.8603 168.048 35.8603C165.407 35.8603 162.717 37.2777 162.717 39.9228C162.717 42.3423 164.88 43.9005 167.311 43.9005C169.17 43.9005 170.196 43.0825 170.841 42.131H170.935V43.5267H173.604V36.6006C173.604 33.3993 171.152 31.6082 167.976 31.6082ZM167.643 41.5027C166.739 41.5027 165.48 41.0657 165.48 39.9734C165.48 38.5759 167.05 38.0396 168.409 38.0396C169.626 38.0396 170.196 38.3014 170.935 38.6463C170.719 40.3182 169.243 41.5027 167.643 41.5027ZM183.326 32.0036L180.15 39.8307H180.056L176.772 32.0036H173.793L178.726 42.9417L175.911 49.0282H178.798L186.4 32.0036H183.326ZM158.42 43.5556H161.191V25.5H158.42V43.5556Z" fill="white"/>
<defs>
<linearGradient id="paint0_linear_449_1855" x1="32.2958" y1="45.4194" x2="8.06236" y2="20.5645" gradientUnits="userSpaceOnUse">
<stop stop-color="#00A0FF"/>
<stop offset="0.0066" stop-color="#00A1FF"/>
<stop offset="0.2601" stop-color="#00BEFF"/>
<stop offset="0.5122" stop-color="#00D2FF"/>
<stop offset="0.7604" stop-color="#00DFFF"/>
<stop offset="1" stop-color="#00E3FF"/>
</linearGradient>
<linearGradient id="paint1_linear_449_1855" x1="50.1249" y1="29.1092" x2="14.2776" y2="29.1092" gradientUnits="userSpaceOnUse">
<stop stop-color="#FFE000"/>
<stop offset="0.4087" stop-color="#FFBD00"/>
<stop offset="0.7754" stop-color="#FFA500"/>
<stop offset="1" stop-color="#FF9C00"/>
</linearGradient>
<linearGradient id="paint2_linear_449_1855" x1="36.7807" y1="25.7946" x2="3.91815" y2="-7.91062" gradientUnits="userSpaceOnUse">
<stop stop-color="#FF3A44"/>
<stop offset="1" stop-color="#C31162"/>
</linearGradient>
<linearGradient id="paint3_linear_449_1855" x1="10.8108" y1="57.7456" x2="25.4854" y2="42.6948" gradientUnits="userSpaceOnUse">
<stop stop-color="#32A071"/>
<stop offset="0.0685" stop-color="#2DA771"/>
<stop offset="0.4762" stop-color="#15CF74"/>
<stop offset="0.8009" stop-color="#06E775"/>
<stop offset="1" stop-color="#00F076"/>
</linearGradient>
</defs>
</svg>
