<svg width="80" height="25" viewBox="0 0 80 25" fill="none" xmlns="http://www.w3.org/2000/svg">
<g clip-path="url(#clip0_451_375)">
<path d="M39.6355 24.608V24.5681C39.6754 24.5181 39.7454 24.4882 39.8053 24.4982C40.0949 24.4882 40.3745 24.4882 40.6642 24.4982C40.7241 24.4982 40.794 24.5181 40.8339 24.5681V24.608H39.6355Z" fill="white"/>
<path d="M40.8339 24.568C40.4345 24.558 40.035 24.558 39.6355 24.568C39.0862 24.5381 38.5369 24.5181 37.9876 24.4782C36.5295 24.3683 35.0814 24.1486 33.6633 23.819C28.7596 22.6805 24.4552 20.3935 20.7001 17.0678C20.3506 16.7582 20.021 16.4386 19.6814 16.119C19.6015 16.0491 19.5316 15.9492 19.4917 15.8494C19.4318 15.7096 19.4617 15.5598 19.5616 15.4499C19.6615 15.34 19.8213 15.3001 19.9611 15.36C20.051 15.4 20.1408 15.4399 20.2207 15.4898C23.8061 17.707 27.721 19.3249 31.8256 20.2836C33.2039 20.6032 34.592 20.8529 35.9902 21.0326C37.9976 21.2823 40.025 21.3722 42.0424 21.3023C43.1309 21.2723 44.2095 21.1725 45.2881 21.0326C47.8049 20.713 50.2916 20.1438 52.6985 19.3448C53.9669 18.9254 55.2052 18.446 56.4137 17.8867C56.5934 17.7869 56.8132 17.7569 57.0129 17.8068C57.3425 17.8867 57.5422 18.2263 57.4623 18.5559C57.4523 18.5958 57.4323 18.6457 57.4124 18.6857C57.3325 18.8355 57.2226 18.9653 57.0828 19.0652C55.9343 19.964 54.6959 20.753 53.3876 21.4121C50.9208 22.6605 48.2842 23.5494 45.5678 24.0587C43.9998 24.3383 42.4219 24.5081 40.8339 24.568ZM26.0432 4.32436C26.2928 4.17456 26.5525 4.01476 26.8222 3.87495C27.5212 3.51541 28.3002 3.33565 29.0892 3.3756C29.6585 3.40556 30.1778 3.56535 30.5773 3.9848C30.9568 4.3743 31.0966 4.85367 31.1365 5.373C31.1465 5.48285 31.1465 5.59271 31.1465 5.71256V10.8858C31.1465 11.3352 31.0866 11.3952 30.6372 11.3952H29.4188C29.3389 11.3952 29.259 11.3952 29.1791 11.3852C29.0592 11.3752 28.9594 11.2753 28.9394 11.1555C28.9194 11.0456 28.9194 10.9358 28.9194 10.8259V6.20192C28.9294 6.01217 28.9094 5.8324 28.8595 5.65263C28.7796 5.34304 28.5 5.12332 28.1804 5.10335C27.5912 5.0634 27.0019 5.18324 26.4626 5.43292C26.3827 5.45289 26.3328 5.53279 26.3428 5.61269V10.8659C26.3428 10.9657 26.3428 11.0556 26.3228 11.1555C26.3228 11.2953 26.2129 11.3952 26.0731 11.3952C25.9233 11.4052 25.7735 11.4052 25.6137 11.4052H24.5551C24.1856 11.4052 24.1057 11.3153 24.1057 10.9458V6.22189C24.1057 6.05211 24.0957 5.87235 24.0558 5.70257C23.9858 5.36301 23.6962 5.12332 23.3567 5.10335C22.7574 5.0634 22.1482 5.18324 21.6089 5.44291C21.529 5.46288 21.4791 5.55276 21.4991 5.63266V10.9557C21.4991 11.3253 21.4192 11.4052 21.0497 11.4052H19.7114C19.3619 11.4052 19.272 11.3053 19.272 10.9657V4.03474C19.272 3.95484 19.282 3.87495 19.3019 3.79505C19.3419 3.67521 19.4617 3.6053 19.5816 3.6053H20.8299C21.0097 3.6053 21.1196 3.71515 21.1795 3.88493C21.2294 4.02475 21.2594 4.15458 21.3093 4.30439C21.4092 4.30439 21.4691 4.23448 21.539 4.19453C22.0883 3.85497 22.6676 3.56535 23.3167 3.4455C23.8161 3.34563 24.3154 3.34563 24.8148 3.4455C25.2842 3.54537 25.7036 3.82501 25.9733 4.22449C25.9932 4.25445 26.0132 4.27443 26.0332 4.2944C26.0232 4.30439 26.0332 4.30439 26.0432 4.32436Z" fill="white"/>
<path d="M46.7462 9.2979C46.8062 9.09816 46.8661 8.90841 46.926 8.70867C47.3854 7.16068 47.8448 5.62268 48.3042 4.0747L48.3641 3.89493C48.4141 3.71516 48.5838 3.60531 48.7636 3.60531H50.2816C50.6611 3.60531 50.741 3.71516 50.6112 4.0747L50.012 5.66263C49.3429 7.40037 48.6737 9.1481 48.0046 10.8858C47.9846 10.9458 47.9547 11.0057 47.9347 11.0656C47.8648 11.2753 47.6551 11.4152 47.4353 11.3952C46.9959 11.3852 46.5565 11.3852 46.1171 11.3952C45.8075 11.4052 45.6277 11.2653 45.5178 10.9857C45.2682 10.3266 45.0085 9.65744 44.7588 8.99829C44.1596 7.43033 43.5504 5.86237 42.9512 4.28442C42.8913 4.16458 42.8513 4.02476 42.8213 3.89493C42.7914 3.69519 42.8613 3.59532 43.061 3.59532C43.6303 3.58533 44.1995 3.59532 44.7588 3.59532C44.9985 3.59532 45.1084 3.75511 45.1683 3.96484C45.2781 4.34435 45.388 4.73384 45.5078 5.11335C45.9173 6.50154 46.3168 7.89972 46.7263 9.28792C46.7163 9.2979 46.7263 9.2979 46.7462 9.2979Z" fill="white"/>
<path d="M11.2823 4.70389C11.3522 4.68392 11.4121 4.64397 11.4521 4.58405C11.6319 4.40428 11.8216 4.2345 12.0213 4.07471C12.5407 3.67523 13.1898 3.47549 13.839 3.52542C14.0986 3.53541 14.1885 3.61531 14.2085 3.86498C14.2285 4.20454 14.2185 4.55409 14.2185 4.89365C14.2285 5.03346 14.2185 5.16329 14.1985 5.30311C14.1586 5.48288 14.0887 5.55279 13.9089 5.57276C13.7691 5.58275 13.6392 5.57276 13.4994 5.56277C12.8303 5.50285 12.1811 5.63268 11.552 5.84241C11.4121 5.89235 11.4121 5.99222 11.4121 6.10207V10.8958C11.4121 10.9857 11.4121 11.0656 11.4022 11.1555C11.3922 11.2853 11.2923 11.3852 11.1625 11.3852C11.0926 11.3952 11.0127 11.3952 10.9427 11.3952H9.64444C9.57453 11.3952 9.49463 11.3952 9.42472 11.3852C9.29489 11.3752 9.19502 11.2654 9.18504 11.1355C9.17505 11.0556 9.17505 10.9757 9.17505 10.8958V4.10467C9.17505 3.64527 9.22498 3.59533 9.68439 3.59533H10.6431C10.9028 3.59533 11.0226 3.68522 11.0926 3.93489C11.1625 4.18457 11.2224 4.43424 11.2823 4.70389ZM58.0016 14.8307C58.6607 14.8507 59.3099 14.8906 59.949 15.0604C60.1288 15.1104 60.2986 15.1703 60.4683 15.2502C60.698 15.3401 60.8479 15.5598 60.8778 15.7995C60.9178 16.0791 60.9277 16.3687 60.9078 16.6583C60.7779 18.3661 60.2486 20.014 59.3698 21.4821C59.0502 22.0114 58.6607 22.4908 58.2113 22.9102C58.1214 23.0001 58.0115 23.07 57.8917 23.11C57.7019 23.1599 57.5821 23.06 57.5721 22.8703C57.5821 22.7704 57.6021 22.6705 57.642 22.5707C57.9916 21.6319 58.3311 20.7031 58.6008 19.7343C58.7606 19.205 58.8704 18.6657 58.9403 18.1164C58.9603 17.9167 58.9703 17.717 58.9503 17.5172C58.9403 17.1777 58.7206 16.888 58.391 16.7882C58.0815 16.6883 57.7619 16.6284 57.4323 16.6084C56.5135 16.5685 55.5947 16.6084 54.6859 16.7283L53.4774 16.8781C53.3476 16.888 53.2278 16.8781 53.1579 16.7582C53.0879 16.6384 53.1179 16.5185 53.1878 16.3987C53.2677 16.2888 53.3676 16.189 53.4874 16.119C54.2265 15.5897 55.0554 15.2702 55.9342 15.0604C56.6134 14.9206 57.3025 14.8507 58.0016 14.8307Z" fill="white"/>
<path d="M53.8169 7.50025V11.0956C53.797 11.2953 53.7071 11.3852 53.5073 11.3952C52.968 11.4052 52.4387 11.4052 51.8994 11.3952C51.6997 11.3952 51.6098 11.2953 51.5898 11.1056C51.5798 11.0456 51.5798 10.9757 51.5798 10.9158V4.0048C51.5898 3.6952 51.6697 3.60532 51.9793 3.60532H53.4174C53.727 3.60532 53.8169 3.6952 53.8169 4.0048V7.50025Z" fill="white"/>
<path d="M15.1773 7.48028V3.93489C15.1873 3.6952 15.2772 3.60532 15.5169 3.59533C16.0362 3.58534 16.5555 3.58534 17.0748 3.59533C17.3045 3.59533 17.3744 3.66524 17.3944 3.89494C17.4044 3.98482 17.4044 4.06472 17.4044 4.1546V10.806C17.4044 10.9158 17.3944 11.0257 17.3844 11.1355C17.3744 11.2654 17.2746 11.3552 17.1447 11.3652C17.0848 11.3752 17.0349 11.3752 16.975 11.3752H15.5868C15.5368 11.3752 15.4969 11.3752 15.4469 11.3652C15.3071 11.3552 15.1873 11.2454 15.1773 11.1056C15.1673 11.0257 15.1673 10.9458 15.1673 10.8659C15.1773 9.75732 15.1773 8.6188 15.1773 7.48028ZM16.3358 0.0199799C16.4956 0.00999292 16.6554 0.039954 16.8052 0.089889C17.3445 0.269655 17.6241 0.739045 17.5742 1.34825C17.5342 1.86758 17.1447 2.28703 16.6254 2.36693C16.4057 2.40688 16.176 2.40688 15.9563 2.36693C15.387 2.25707 14.9676 1.83762 15.0075 1.11855C15.0674 0.409473 15.5368 0.0199799 16.3358 0.0199799Z" fill="white"/>
<path d="M52.7086 0.0199826C52.9083 8.61287e-06 53.1081 0.0399567 53.2978 0.119853C53.6873 0.269658 53.9569 0.62919 53.9769 1.04864C54.0568 1.95746 53.4476 2.41687 52.6387 2.39689C52.5288 2.39689 52.419 2.37692 52.3091 2.35694C51.6899 2.20714 51.3703 1.72776 51.4302 1.03866C51.4802 0.489372 51.9096 0.0799047 52.4988 0.0299697C52.5688 0.0199826 52.6387 0.00999563 52.7086 0.0199826Z" fill="white"/>
<path d="M7.6969 6.66135C7.65696 6.14202 7.51714 5.63269 7.30741 5.1633C6.89794 4.30441 6.26876 3.67523 5.31001 3.45552C4.21144 3.21583 3.22272 3.45552 2.32389 4.12465C2.26397 4.18457 2.19406 4.2345 2.11416 4.27445C2.09419 4.26446 2.07422 4.25448 2.07422 4.24449C2.04425 4.14462 2.02428 4.04475 1.99432 3.94488C1.91442 3.69521 1.81455 3.60532 1.5449 3.60532C1.24529 3.60532 0.935696 3.61531 0.636086 3.60532C0.406385 3.59533 0.196657 3.6253 0.0368652 3.80506C0.0368652 7.30052 0.0368652 10.806 0.0468522 14.2914C0.176683 14.5012 0.376424 14.5411 0.606125 14.5311C0.965657 14.5211 1.32519 14.5311 1.68472 14.5311C2.3139 14.5311 2.3139 14.5311 2.3139 13.9119V11.0656C2.3139 10.9957 2.28394 10.9158 2.35385 10.8559C2.8532 11.2454 3.46241 11.4851 4.09159 11.545C4.97045 11.6349 5.76941 11.4152 6.43854 10.8159C6.9279 10.3665 7.28744 9.78728 7.47719 9.14811C7.74684 8.32918 7.76681 7.50026 7.6969 6.66135ZM5.31001 8.72866C5.2401 9.03826 5.08031 9.31789 4.85061 9.52762C4.59094 9.74734 4.27136 9.87717 3.9318 9.87717C3.42246 9.90713 2.92311 9.79727 2.4737 9.55758C2.36384 9.50765 2.29393 9.39779 2.30392 9.27795V7.4703C2.30392 6.87108 2.3139 6.27185 2.30392 5.67263C2.29393 5.53282 2.37383 5.41297 2.50366 5.36304C3.05294 5.10337 3.6222 4.98353 4.22142 5.10337C4.64088 5.1633 5.00041 5.43295 5.17019 5.82244C5.32 6.14202 5.40988 6.49157 5.42985 6.84111C5.48977 7.48028 5.48977 8.11945 5.31001 8.72866Z" fill="white"/>
<path d="M79.943 8.2193C79.943 8.20932 79.943 8.20932 79.943 8.2193V8.2193ZM79.953 6.88104V6.92099C79.913 6.88104 79.8931 6.82112 79.913 6.77119V6.69129C79.913 6.69129 79.913 6.6813 79.923 6.6813H79.913V6.58143H79.933C79.933 6.57145 79.923 6.57145 79.923 6.56146C79.903 6.37171 79.8631 6.18195 79.8132 6.00219C79.4436 4.6839 78.6147 3.81503 77.2665 3.47547C76.6373 3.32567 75.9981 3.30569 75.3589 3.40556C74.0107 3.6053 73.042 4.32437 72.5726 5.60271C72.1132 6.82112 72.1232 8.15938 72.5826 9.3778C72.982 10.4864 73.781 11.1854 74.9295 11.4751C75.5387 11.6249 76.1779 11.6648 76.8071 11.5749C78.9043 11.3253 79.7732 9.73733 79.913 8.35912H79.903V8.2193C79.8931 8.15938 79.8831 8.10945 79.943 8.0695V8.08947C79.943 8.07948 79.953 8.05951 79.963 8.04952V6.90102C79.963 6.89103 79.953 6.89103 79.953 6.88104ZM77.5561 8.77858C77.4962 8.9883 77.4063 9.17806 77.2765 9.35782C77.0567 9.66742 76.7072 9.86716 76.3277 9.89712C76.1379 9.9171 75.9482 9.9171 75.7584 9.87715C75.339 9.79725 74.9894 9.51761 74.8196 9.12812C74.6698 8.81852 74.58 8.47896 74.55 8.13941C74.5001 7.55017 74.4901 6.96094 74.6299 6.38169C74.6798 6.15199 74.7797 5.92229 74.8995 5.72255C75.1193 5.36302 75.4988 5.13332 75.9182 5.10335C76.108 5.08338 76.2977 5.08338 76.4875 5.12333C76.887 5.20323 77.2165 5.46289 77.3963 5.83241C77.5661 6.18195 77.6659 6.57145 77.6859 6.96094C77.6959 7.14071 77.7059 7.32047 77.6959 7.50024C77.7259 7.93967 77.6759 8.36911 77.5561 8.77858ZM62.4457 0.0898743H61.0575C60.678 0.0898743 60.6081 0.159783 60.6081 0.53929V3.77508C60.6081 3.84499 60.6381 3.9149 60.5882 3.98481C60.4983 3.97482 60.4483 3.9149 60.3784 3.87495C59.3398 3.26574 58.2512 3.15589 57.1526 3.66522C56.3836 4.02476 55.9042 4.67391 55.5946 5.44291C55.295 6.18195 55.2251 6.96094 55.2451 7.74991C55.2451 8.48895 55.4149 9.218 55.7445 9.87715C56.124 10.6062 56.6732 11.1655 57.4722 11.4052C58.5608 11.7447 59.5795 11.5749 60.5083 10.8858C60.5782 10.8459 60.6181 10.776 60.708 10.756C60.7579 10.8659 60.7979 10.9857 60.8179 11.1055C60.8578 11.2653 60.9976 11.3752 61.1674 11.3752H61.4071C61.7666 11.3752 62.1162 11.3852 62.4657 11.3752C62.7453 11.3752 62.8252 11.2853 62.8352 10.9957V0.469381C62.8252 0.159783 62.7454 0.0898743 62.4457 0.0898743ZM60.6181 7.44032V9.25795C60.6381 9.3778 60.5682 9.48765 60.4583 9.53759C59.9789 9.80724 59.4297 9.9171 58.8904 9.8372C58.431 9.78726 58.0315 9.50763 57.8218 9.09816C57.662 8.77857 57.5721 8.43902 57.5421 8.08947C57.4622 7.46029 57.5122 6.82112 57.662 6.21191C57.7119 6.04213 57.7718 5.88234 57.8617 5.72255C58.0714 5.33306 58.4709 5.08338 58.9103 5.05342C59.4396 5.00348 59.969 5.10335 60.4483 5.32307C60.5682 5.36302 60.6381 5.48286 60.6281 5.61269C60.6081 6.23189 60.6181 6.83111 60.6181 7.44032Z" fill="white"/>
<path d="M34.7917 8.12944C35.5407 8.26926 36.3097 8.27925 37.0587 8.1594C37.4982 8.09948 37.9176 7.96965 38.3071 7.75992C38.7565 7.50026 39.0861 7.14073 39.2259 6.64138C39.5755 5.38301 39.0362 4.11466 37.7279 3.64527C37.0887 3.43555 36.4096 3.36564 35.7404 3.45552C34.1625 3.63529 33.1338 4.50416 32.6644 6.0122C32.3349 7.04086 32.3748 8.0895 32.6445 9.12814C32.994 10.4564 33.8729 11.2454 35.2011 11.525C35.9602 11.6948 36.7292 11.6648 37.4882 11.545C37.8877 11.4751 38.2871 11.3752 38.6666 11.2254C38.8963 11.1355 39.0162 10.9957 39.0062 10.7361C38.9962 10.4964 39.0062 10.2467 39.0062 9.99701C39.0062 9.6974 38.8864 9.60752 38.5967 9.67743C38.3071 9.74734 38.0275 9.80726 37.7378 9.86718C37.1187 9.99701 36.4795 9.99701 35.8603 9.88716C35.0114 9.71738 34.4621 8.98833 34.512 8.08949C34.6019 8.09948 34.7018 8.10947 34.7917 8.12944ZM34.542 6.60143C34.572 6.36174 34.6419 6.13204 34.7318 5.91233C35.0314 5.18327 35.6605 4.9336 36.2997 4.97355C36.4795 4.98353 36.6592 5.02348 36.829 5.09339C37.0887 5.20325 37.2585 5.44294 37.2884 5.72257C37.3184 5.89235 37.3084 6.07212 37.2585 6.2419C37.1386 6.60143 36.849 6.75123 36.4995 6.82114C36.2897 6.87108 36.07 6.89105 35.8503 6.87108C35.4608 6.87108 35.0613 6.84112 34.6718 6.7812C34.522 6.76122 34.522 6.76122 34.542 6.60143Z" fill="white"/>
<path d="M68.4779 8.22929C69.0572 8.18934 69.6364 8.07948 70.1557 7.79984C70.685 7.54018 71.0546 7.05082 71.1644 6.47157C71.2343 6.11204 71.2343 5.73253 71.1544 5.373C70.9447 4.47417 70.3754 3.9149 69.5166 3.62527C69.0372 3.47547 68.5278 3.41555 68.0285 3.43552C66.3507 3.47547 65.0723 4.32436 64.553 6.00218C64.2035 7.11074 64.2534 8.23927 64.593 9.34783C64.9425 10.4864 65.7415 11.1755 66.88 11.4851C67.3693 11.6049 67.8787 11.6548 68.378 11.6349C69.1071 11.6249 69.8361 11.4851 70.5252 11.2254C70.8149 11.1155 70.8848 11.0157 70.8848 10.7061V9.987C70.8748 9.69738 70.7549 9.59751 70.4653 9.66742C70.2456 9.72734 70.0359 9.77727 69.8162 9.82721C69.147 9.987 68.4479 10.017 67.7688 9.89712C67.0897 9.76729 66.6303 9.37779 66.4505 8.69868C66.4006 8.49894 66.3607 8.2992 66.3407 8.08947C66.3906 8.08947 66.4406 8.08947 66.4805 8.10944C67.1396 8.22929 67.8088 8.27922 68.4779 8.22929ZM66.3906 6.63136C66.4605 6.24187 66.5504 5.86236 66.7901 5.54278C67.1596 5.05342 67.669 4.9136 68.2482 4.97352C68.2981 4.97352 68.3381 4.99349 68.388 4.99349C69.0871 5.10335 69.2569 5.66262 69.1271 6.20192C69.0272 6.6014 68.6976 6.75121 68.3281 6.82112C68.1284 6.86106 67.9186 6.88104 67.7089 6.87105C67.2994 6.86106 66.9 6.8311 66.5005 6.77118C66.4106 6.76119 66.3706 6.72125 66.3906 6.63136Z" fill="white"/>
</g>
<defs>
<clipPath id="clip0_451_375">
<rect width="80" height="24.608" fill="white"/>
</clipPath>
</defs>
</svg>
