<svg width="80" height="18" viewBox="0 0 80 18" fill="none" xmlns="http://www.w3.org/2000/svg">
<path d="M24.9659 2.79265C24.6719 1.70079 23.811 0.839895 22.7192 0.545932C20.7244 0 12.7454 0 12.7454 0C12.7454 0 4.76641 0 2.77165 0.524934C1.70079 0.818898 0.818898 1.70079 0.524934 2.79265C0 4.7874 0 8.92389 0 8.92389C0 8.92389 0 13.0814 0.524934 15.0551C0.818898 16.147 1.67979 17.0079 2.77165 17.3018C4.7874 17.8478 12.7454 17.8478 12.7454 17.8478C12.7454 17.8478 20.7244 17.8478 22.7192 17.3228C23.811 17.0289 24.6719 16.168 24.9659 15.0761C25.4908 13.0814 25.4908 8.94488 25.4908 8.94488C25.4908 8.94488 25.5118 4.7874 24.9659 2.79265V2.79265Z" fill="white"/>
<path d="M10.2046 5.10236V12.7454L16.8398 8.92388L10.2046 5.10236Z" fill="#303030"/>
<path d="M37.0182 16.252C36.5142 15.916 36.1573 15.3911 35.9473 14.6562C35.7373 13.9423 35.6323 12.9764 35.6323 11.8005V10.1837C35.6323 8.9869 35.7583 8.02102 35.9893 7.28611C36.2412 6.5512 36.6192 6.02627 37.1231 5.69031C37.6481 5.35435 38.32 5.18637 39.1599 5.18637C39.9788 5.18637 40.6507 5.35435 41.1546 5.69031C41.6586 6.02627 42.0155 6.5722 42.2465 7.28611C42.4775 8.00002 42.6035 8.9659 42.6035 10.1837V11.8005C42.6035 12.9974 42.4985 13.9423 42.2675 14.6772C42.0365 15.3911 41.6796 15.937 41.1756 16.273C40.6717 16.6089 39.9788 16.7769 39.1179 16.7769C38.236 16.7559 37.5221 16.5879 37.0182 16.252V16.252ZM39.8528 14.4882C39.9998 14.1313 40.0628 13.5223 40.0628 12.7034V9.21787C40.0628 8.41997 39.9998 7.83204 39.8528 7.45409C39.7058 7.07614 39.4748 6.90816 39.1179 6.90816C38.7819 6.90816 38.53 7.09713 38.404 7.45409C38.257 7.83204 38.194 8.41997 38.194 9.21787V12.7034C38.194 13.5223 38.257 14.1313 38.404 14.4882C38.53 14.8452 38.7819 15.0341 39.1389 15.0341C39.4748 15.0341 39.7058 14.8662 39.8528 14.4882Z" fill="white"/>
<path d="M75.7794 11.8215V12.3885C75.7794 13.1024 75.8004 13.6483 75.8424 14.0053C75.8844 14.3622 75.9684 14.6352 76.1154 14.7822C76.2414 14.9502 76.4514 15.0341 76.7453 15.0341C77.1233 15.0341 77.3753 14.8872 77.5222 14.5932C77.6692 14.2992 77.7322 13.8163 77.7532 13.1234L79.9159 13.2494C79.9369 13.3544 79.9369 13.4803 79.9369 13.6483C79.9369 14.6772 79.664 15.4541 79.097 15.958C78.5301 16.462 77.7322 16.7139 76.7033 16.7139C75.4645 16.7139 74.6036 16.315 74.0997 15.5381C73.5957 14.7612 73.3438 13.5643 73.3438 11.9265V9.97378C73.3438 8.29399 73.5957 7.07614 74.1207 6.29923C74.6456 5.52233 75.5275 5.14438 76.7663 5.14438C77.6272 5.14438 78.2991 5.31236 78.7611 5.62732C79.223 5.94228 79.538 6.44622 79.727 7.09713C79.9159 7.76905 79.9999 8.69294 79.9999 9.86879V11.7795H75.7794V11.8215ZM76.0944 7.11813C75.9684 7.28611 75.8844 7.53808 75.8424 7.89503C75.8004 8.25199 75.7794 8.79792 75.7794 9.53283V10.3307H77.6272V9.53283C77.6272 8.81892 77.6062 8.27299 77.5642 7.89503C77.5222 7.51708 77.4172 7.26511 77.2913 7.11813C77.1653 6.97115 76.9553 6.88716 76.7033 6.88716C76.4094 6.86616 76.2204 6.95015 76.0944 7.11813Z" fill="white"/>
<path d="M30.8869 11.6116L28.0312 1.25986H30.5299L31.5378 5.94227C31.7898 7.09713 31.9788 8.08401 32.1047 8.9029H32.1677C32.2517 8.31498 32.4407 7.3491 32.7347 5.96327L33.7845 1.25986H36.2832L33.3856 11.6116V16.5669H30.9079V11.6116H30.8869Z" fill="white"/>
<path d="M50.7294 5.39633V16.5879H48.7557L48.5457 15.2231H48.4827C47.9578 16.252 47.1389 16.7769 46.068 16.7769C45.3331 16.7769 44.7872 16.5249 44.4302 16.042C44.0733 15.5591 43.9053 14.8032 43.9053 13.7533V5.39633H46.425V13.6063C46.425 14.1102 46.4879 14.4672 46.5929 14.6772C46.6979 14.8871 46.8869 14.9921 47.1389 14.9921C47.3488 14.9921 47.5588 14.9291 47.7688 14.7822C47.9788 14.6562 48.1257 14.4882 48.2097 14.2782V5.39633H50.7294Z" fill="white"/>
<path d="M63.643 5.39633V16.5879H61.6692L61.4593 15.2231H61.3963C60.8713 16.252 60.0524 16.7769 58.9816 16.7769C58.2467 16.7769 57.7007 16.5249 57.3438 16.042C56.9868 15.5591 56.8188 14.8032 56.8188 13.7533V5.39633H59.3385V13.6063C59.3385 14.1102 59.4015 14.4672 59.5065 14.6772C59.6115 14.8871 59.8005 14.9921 60.0524 14.9921C60.2624 14.9921 60.4724 14.9291 60.6824 14.7822C60.8923 14.6562 61.0393 14.4882 61.1233 14.2782V5.39633H63.643Z" fill="white"/>
<path d="M57.5747 3.2966H55.076V16.5669H52.6193V3.2966H50.1206V1.25986H57.5747V3.2966Z" fill="white"/>
<path d="M71.9789 7.18112C71.832 6.46721 71.58 5.96327 71.244 5.64831C70.9081 5.33335 70.4251 5.16537 69.8372 5.16537C69.3753 5.16537 68.9343 5.29136 68.5354 5.56432C68.1364 5.81629 67.8215 6.17325 67.6115 6.5932H67.5905V0.692932H65.1548V16.567H67.2335L67.4855 15.5171H67.5485C67.7375 15.895 68.0314 16.189 68.4304 16.42C68.8293 16.6299 69.2493 16.7559 69.7322 16.7559C70.5931 16.7559 71.202 16.357 71.601 15.5801C71.9999 14.8032 72.2099 13.5643 72.2099 11.9055V10.1418C72.1889 8.86091 72.1259 7.87404 71.9789 7.18112V7.18112ZM69.6692 11.7376C69.6692 12.5565 69.6272 13.1864 69.5642 13.6483C69.5012 14.1103 69.3753 14.4462 69.2283 14.6352C69.0603 14.8242 68.8503 14.9292 68.5984 14.9292C68.3884 14.9292 68.1994 14.8872 68.0314 14.7822C67.8634 14.6772 67.7165 14.5302 67.6115 14.3412V8.00002C67.6955 7.70606 67.8425 7.45409 68.0524 7.24411C68.2624 7.05514 68.4934 6.95015 68.7243 6.95015C68.9763 6.95015 69.1863 7.05514 69.3123 7.24411C69.4593 7.45409 69.5432 7.79005 69.6062 8.25199C69.6692 8.73493 69.6902 9.40685 69.6902 10.2677V11.7376H69.6692Z" fill="white"/>
</svg>
